<svg xmlns="http://www.w3.org/2000/svg" xmlns:xlink="http://www.w3.org/1999/xlink" viewBox="0 0 604.2 604.2"><circle fill="#D34B27" cx="302.1" cy="302.1" r="302.1"/><defs><circle id="a" cx="302.1" cy="302.1" r="302.1"/></defs><clipPath id="b"><use xlink:href="#a" overflow="visible"/></clipPath><g clip-path="url(#b)"><path fill="#EF4438" d="M398.4 220.9H-89.7V123c0-5.8 4.7-10.5 10.5-10.5h467c5.8 0 10.5 4.7 10.5 10.5v97.9z"/><path fill="#F5F5F5" d="M387.9 574.4h-467c-5.8 0-10.5-4.7-10.5-10.5v-343h488.1v343c-.1 5.8-4.8 10.5-10.6 10.5z"/><path fill="#BDBDBD" d="M-89.7 242.3h488.1v13.4H-89.7z"/><path fill="#EF4438" d="M-44.7 333.5h36.4v32.1h-36.4zM15.4 333.5h36.4v32.1H15.4z"/><path fill="#BDBDBD" d="M75.5 333.5h36.4v32.1H75.5zM135.6 333.5H172v32.1h-36.4zM195.8 333.5h36.4v32.1h-36.4zM255.9 333.5h36.4v32.1h-36.4zM316 333.5h36.4v32.1H316z"/><path fill="#EF4438" d="M-44.7 385.4h36.4v32.1h-36.4zM15.4 385.4h36.4v32.1H15.4z"/><path fill="#BDBDBD" d="M75.5 385.4h36.4v32.1H75.5zM135.6 385.4H172v32.1h-36.4zM195.8 385.4h36.4v32.1h-36.4zM255.9 385.4h36.4v32.1h-36.4zM316 385.4h36.4v32.1H316z"/><path fill="#EF4438" d="M-44.7 437.3h36.4v32.1h-36.4zM15.4 437.3h36.4v32.1H15.4z"/><path fill="#BDBDBD" d="M75.5 437.3h36.4v32.1H75.5zM135.6 437.3H172v32.1h-36.4zM195.8 437.3h36.4v32.1h-36.4zM255.9 437.3h36.4v32.1h-36.4z"/><path fill="#EF4438" d="M316 437.3h36.4v32.1H316zM-44.7 489.2h36.4v32.1h-36.4zM15.4 489.2h36.4v32.1H15.4z"/><path fill="#BDBDBD" d="M75.5 489.2h36.4v32.1H75.5zM135.6 489.2H172v32.1h-36.4zM195.8 489.2h36.4v32.1h-36.4zM255.9 489.2h36.4v32.1h-36.4zM316 489.2h36.4v32.1H316zM-44.7 292.4h36.4v14.2h-36.4zM15.4 292.4h36.4v14.2H15.4zM75.5 292.4h36.4v14.2H75.5zM135.6 292.4H172v14.2h-36.4zM195.8 292.4h36.4v14.2h-36.4zM255.9 292.4h36.4v14.2h-36.4zM316 292.4h36.4v14.2H316z"/><circle fill="#212121" cx="-35.6" cy="150.8" r="9.1"/><circle fill="#212121" cx="18.5" cy="150.8" r="9.1"/><circle fill="#212121" cx="72.6" cy="150.8" r="9.1"/><circle fill="#212121" cx="126.8" cy="150.8" r="9.1"/><circle fill="#212121" cx="180.9" cy="150.8" r="9.1"/><circle fill="#212121" cx="235" cy="150.8" r="9.1"/><circle fill="#212121" cx="289.2" cy="150.8" r="9.1"/><circle fill="#212121" cx="343.3" cy="150.8" r="9.1"/><path fill="none" stroke="#CCC" stroke-width="4.211" stroke-miterlimit="10" d="M-35.6 150.8v-43.1c0-7.5 6.1-13.6 13.6-13.6s13.6 6.1 13.6 13.6v4.6M18.5 150.8v-43.1c0-7.5 6.1-13.6 13.6-13.6s13.6 6.1 13.6 13.6v4.6M72.6 150.8v-43.1c0-7.5 6.1-13.6 13.6-13.6s13.6 6.1 13.6 13.6v4.6M126.8 150.8v-43.1c0-7.5 6.1-13.6 13.6-13.6s13.6 6.1 13.6 13.6v4.6M180.9 150.8v-43.1c0-7.5 6.1-13.6 13.6-13.6s13.6 6.1 13.6 13.6v4.6M235 150.8v-43.1c0-7.5 6.1-13.6 13.6-13.6s13.6 6.1 13.6 13.6v4.6M289.2 150.8v-43.1c0-7.5 6.1-13.6 13.6-13.6s13.6 6.1 13.6 13.6v4.6M343.3 150.8v-43.1c0-7.5 6.1-13.6 13.6-13.6s13.6 6.1 13.6 13.6v4.6"/></g></svg>